<mxfile host="65bd71144e">
    <diagram id="Pn1JtPv44FRN3D3rI3t3" name="Page-1">
        <mxGraphModel dx="1575" dy="681" grid="1" gridSize="10" guides="1" tooltips="1" connect="1" arrows="1" fold="1" page="1" pageScale="1" pageWidth="850" pageHeight="1100" math="0" shadow="0">
            <root>
                <mxCell id="0"/>
                <mxCell id="1" parent="0"/>
                <mxCell id="3" style="edgeStyle=none;html=1;entryX=0.5;entryY=0;entryDx=0;entryDy=0;" edge="1" parent="1" source="ZZMFP7aci0OFMdi8jwKB-1" target="ZZMFP7aci0OFMdi8jwKB-2">
                    <mxGeometry relative="1" as="geometry">
                        <mxPoint x="310" y="330" as="targetPoint"/>
                    </mxGeometry>
                </mxCell>
                <mxCell id="ZZMFP7aci0OFMdi8jwKB-1" value="Business Layer" style="swimlane;" parent="1" vertex="1">
                    <mxGeometry x="210" y="340" width="200" height="110" as="geometry"/>
                </mxCell>
                <mxCell id="ZZMFP7aci0OFMdi8jwKB-7" value="Input Validation" style="text;strokeColor=none;fillColor=none;align=left;verticalAlign=top;spacingLeft=4;spacingRight=4;overflow=hidden;rotatable=0;points=[[0,0.5],[1,0.5]];portConstraint=eastwest;whiteSpace=wrap;html=1;" parent="ZZMFP7aci0OFMdi8jwKB-1" vertex="1">
                    <mxGeometry x="30" y="50" width="140" height="26" as="geometry"/>
                </mxCell>
                <mxCell id="ZZMFP7aci0OFMdi8jwKB-2" value="Repository Layer" style="swimlane;startSize=23;" parent="1" vertex="1">
                    <mxGeometry x="210" y="550" width="200" height="120" as="geometry"/>
                </mxCell>
                <mxCell id="ZZMFP7aci0OFMdi8jwKB-6" value="Database queries" style="text;strokeColor=none;fillColor=none;align=left;verticalAlign=top;spacingLeft=4;spacingRight=4;overflow=hidden;rotatable=0;points=[[0,0.5],[1,0.5]];portConstraint=eastwest;whiteSpace=wrap;html=1;" parent="ZZMFP7aci0OFMdi8jwKB-2" vertex="1">
                    <mxGeometry x="30" y="57" width="140" height="26" as="geometry"/>
                </mxCell>
                <mxCell id="ZZMFP7aci0OFMdi8jwKB-3" value="Models" style="swimlane;" parent="1" vertex="1">
                    <mxGeometry x="550" y="320" width="200" height="150" as="geometry"/>
                </mxCell>
                <mxCell id="ZZMFP7aci0OFMdi8jwKB-8" value="Object definitions" style="text;strokeColor=none;fillColor=none;align=left;verticalAlign=top;spacingLeft=4;spacingRight=4;overflow=hidden;rotatable=0;points=[[0,0.5],[1,0.5]];portConstraint=eastwest;whiteSpace=wrap;html=1;" parent="ZZMFP7aci0OFMdi8jwKB-3" vertex="1">
                    <mxGeometry x="10" y="40" width="140" height="26" as="geometry"/>
                </mxCell>
                <mxCell id="ZZMFP7aci0OFMdi8jwKB-9" value="Interfaces" style="text;strokeColor=none;fillColor=none;align=left;verticalAlign=top;spacingLeft=4;spacingRight=4;overflow=hidden;rotatable=0;points=[[0,0.5],[1,0.5]];portConstraint=eastwest;whiteSpace=wrap;html=1;" parent="ZZMFP7aci0OFMdi8jwKB-3" vertex="1">
                    <mxGeometry x="10" y="100" width="140" height="26" as="geometry"/>
                </mxCell>
                <mxCell id="ZZMFP7aci0OFMdi8jwKB-4" value="API Layer" style="swimlane;" parent="1" vertex="1">
                    <mxGeometry x="210" y="120" width="200" height="120" as="geometry"/>
                </mxCell>
                <mxCell id="ZZMFP7aci0OFMdi8jwKB-5" value="Handles HTTP requests" style="text;strokeColor=none;fillColor=none;align=left;verticalAlign=top;spacingLeft=4;spacingRight=4;overflow=hidden;rotatable=0;points=[[0,0.5],[1,0.5]];portConstraint=eastwest;whiteSpace=wrap;html=1;" parent="ZZMFP7aci0OFMdi8jwKB-4" vertex="1">
                    <mxGeometry x="20" y="50" width="140" height="26" as="geometry"/>
                </mxCell>
                <mxCell id="ZZMFP7aci0OFMdi8jwKB-20" value="" style="endArrow=classic;html=1;rounded=0;exitX=0;exitY=0.5;exitDx=0;exitDy=0;" parent="1" source="ZZMFP7aci0OFMdi8jwKB-3" edge="1">
                    <mxGeometry width="50" height="50" relative="1" as="geometry">
                        <mxPoint x="470" y="400" as="sourcePoint"/>
                        <mxPoint x="410" y="400" as="targetPoint"/>
                    </mxGeometry>
                </mxCell>
                <mxCell id="ZZMFP7aci0OFMdi8jwKB-21" value="" style="endArrow=classic;html=1;rounded=0;exitX=0;exitY=1;exitDx=0;exitDy=0;entryX=1;entryY=0;entryDx=0;entryDy=0;" parent="1" source="ZZMFP7aci0OFMdi8jwKB-3" target="ZZMFP7aci0OFMdi8jwKB-2" edge="1">
                    <mxGeometry width="50" height="50" relative="1" as="geometry">
                        <mxPoint x="540" y="600" as="sourcePoint"/>
                        <mxPoint x="590" y="550" as="targetPoint"/>
                    </mxGeometry>
                </mxCell>
                <mxCell id="ZZMFP7aci0OFMdi8jwKB-22" value="" style="endArrow=classic;html=1;rounded=0;exitX=0;exitY=0;exitDx=0;exitDy=0;entryX=1;entryY=0.5;entryDx=0;entryDy=0;" parent="1" source="ZZMFP7aci0OFMdi8jwKB-3" target="ZZMFP7aci0OFMdi8jwKB-4" edge="1">
                    <mxGeometry width="50" height="50" relative="1" as="geometry">
                        <mxPoint x="510" y="250" as="sourcePoint"/>
                        <mxPoint x="560" y="200" as="targetPoint"/>
                    </mxGeometry>
                </mxCell>
                <mxCell id="ZZMFP7aci0OFMdi8jwKB-23" value="" style="shape=cylinder3;whiteSpace=wrap;html=1;boundedLbl=1;backgroundOutline=1;size=15;" parent="1" vertex="1">
                    <mxGeometry x="240" y="720" width="140" height="150" as="geometry"/>
                </mxCell>
                <mxCell id="ZZMFP7aci0OFMdi8jwKB-24" value="Database" style="text;html=1;strokeColor=none;fillColor=none;align=center;verticalAlign=middle;whiteSpace=wrap;rounded=0;" parent="1" vertex="1">
                    <mxGeometry x="280" y="780" width="60" height="30" as="geometry"/>
                </mxCell>
                <mxCell id="2" value="" style="endArrow=classic;html=1;exitX=0.5;exitY=1;exitDx=0;exitDy=0;entryX=0.5;entryY=0;entryDx=0;entryDy=0;" edge="1" parent="1" source="ZZMFP7aci0OFMdi8jwKB-4" target="ZZMFP7aci0OFMdi8jwKB-1">
                    <mxGeometry width="50" height="50" relative="1" as="geometry">
                        <mxPoint x="260" y="490" as="sourcePoint"/>
                        <mxPoint x="170" y="310" as="targetPoint"/>
                        <Array as="points"/>
                    </mxGeometry>
                </mxCell>
                <mxCell id="4" value="" style="endArrow=classic;html=1;entryX=0.5;entryY=0;entryDx=0;entryDy=0;exitX=0.5;exitY=1;exitDx=0;exitDy=0;" edge="1" parent="1" source="ZZMFP7aci0OFMdi8jwKB-1" target="ZZMFP7aci0OFMdi8jwKB-2">
                    <mxGeometry width="50" height="50" relative="1" as="geometry">
                        <mxPoint x="260" y="490" as="sourcePoint"/>
                        <mxPoint x="310" y="440" as="targetPoint"/>
                    </mxGeometry>
                </mxCell>
                <mxCell id="5" value="" style="endArrow=classic;html=1;entryX=0.5;entryY=0;entryDx=0;entryDy=0;entryPerimeter=0;exitX=0.5;exitY=1;exitDx=0;exitDy=0;" edge="1" parent="1" source="ZZMFP7aci0OFMdi8jwKB-2" target="ZZMFP7aci0OFMdi8jwKB-23">
                    <mxGeometry width="50" height="50" relative="1" as="geometry">
                        <mxPoint x="260" y="490" as="sourcePoint"/>
                        <mxPoint x="310" y="440" as="targetPoint"/>
                    </mxGeometry>
                </mxCell>
            </root>
        </mxGraphModel>
    </diagram>
</mxfile>